<?xml version="1.0" encoding="utf-8"?>
<!-- Generator: Adobe Illustrator 17.0.0, SVG Export Plug-In . SVG Version: 6.00 Build 0)  -->
<!DOCTYPE svg PUBLIC "-//W3C//DTD SVG 1.1//EN" "http://www.w3.org/Graphics/SVG/1.1/DTD/svg11.dtd">
<svg version="1.1" id="Layer_1" xmlns="http://www.w3.org/2000/svg" xmlns:xlink="http://www.w3.org/1999/xlink" x="0px" y="0px"
	 width="595.276px" height="648.898px" viewBox="0 0 595.276 648.898" enable-background="new 0 0 595.276 648.898"
	 xml:space="preserve">
<g id="Layer_2">
</g>
<g>
	<path fill="#DE3C21" d="M370.173,91.991c1.921,0,3.49-1.435,3.737-3.288h103.045c0.389,0.001,9.501,0.128,9.501,9.5v12.75
		c0,0.008,0.004,0.014,0.004,0.021c-2.264,0.113-4.077,1.974-4.077,4.266c0,2.364,1.924,4.288,4.288,4.288
		c2.364,0,4.288-1.924,4.288-4.288c0-2.101-1.522-3.845-3.52-4.209c0.004-0.026,0.016-0.05,0.016-0.078v-12.75
		c0-10.38-10.395-10.5-10.5-10.5H373.911c-0.247-1.853-1.817-3.287-3.738-3.287c-2.092,0-3.788,1.696-3.788,3.787
		C366.385,90.295,368.081,91.991,370.173,91.991z M489.961,115.24c0,1.813-1.475,3.288-3.288,3.288s-3.288-1.475-3.288-3.288
		c0-1.812,1.475-3.287,3.288-3.287S489.961,113.428,489.961,115.24z"/>
	<path fill="#DE3C21" d="M118.925,119.529c2.364,0,4.288-1.924,4.288-4.288c0-2.291-1.812-4.153-4.076-4.266
		c0-0.008,0.004-0.014,0.004-0.021v-12.75c0-9.372,9.113-9.499,9.5-9.5h103.046c0.247,1.853,1.817,3.288,3.738,3.288
		c2.092,0,3.788-1.696,3.788-3.788c0-2.091-1.696-3.787-3.788-3.787c-1.921,0-3.491,1.435-3.738,3.287H128.642
		c-0.105,0-10.5,0.12-10.5,10.5v12.75c0,0.028,0.011,0.051,0.016,0.078c-1.998,0.364-3.52,2.109-3.52,4.209
		C114.637,117.605,116.561,119.529,118.925,119.529z M118.925,111.953c1.813,0,3.288,1.475,3.288,3.287
		c0,1.813-1.475,3.288-3.288,3.288s-3.288-1.475-3.288-3.288C115.637,113.428,117.112,111.953,118.925,111.953z"/>
	<path fill="#DE3C21" d="M245.925,218.886c-2.22,0-4.031,1.703-4.246,3.867c-0.076-0.046-0.16-0.08-0.255-0.08h-12.787
		c-8.604,0-9.414,7.874-9.49,9.271c-0.002,0.017-0.01,0.033-0.01,0.051v0.179v28.13c0,11.35-11.031,11.499-11.5,11.5h-15.263
		c-0.492-1.522-1.903-2.63-3.588-2.63c-2.092,0-3.788,1.696-3.788,3.788s1.696,3.788,3.788,3.788c2.091,0,3.787-1.696,3.787-3.788
		c0-0.054-0.014-0.104-0.016-0.158h15.079c0.103,0,8.559-0.105,11.5-7.103v38.473c0,11.35-11.031,11.499-11.5,11.5H62.158
		c-0.267-1.83-1.828-3.241-3.732-3.241c-2.092,0-3.788,1.696-3.788,3.788s1.696,3.788,3.788,3.788c1.936,0,3.515-1.459,3.741-3.335
		h145.471c0.125,0,12.5-0.143,12.5-12.5v-43.87v-28.13c0-0.347,0.097-8.5,8.5-8.5h12.787c0.095,0,0.179-0.034,0.255-0.08
		c0.215,2.165,2.025,3.867,4.246,3.867c2.364,0,4.288-1.923,4.288-4.288C250.213,220.81,248.29,218.886,245.925,218.886z
		 M245.925,226.461c-1.813,0-3.288-1.475-3.288-3.288c0-1.812,1.475-3.287,3.288-3.287s3.288,1.475,3.288,3.287
		C249.213,224.987,247.738,226.461,245.925,226.461z"/>
	<path fill="#DE3C21" d="M416.638,469.674h-49.5c-0.276,0-0.5,0.224-0.5,0.5s0.224,0.5,0.5,0.5h49.5c12.357,0,12.5-12.375,12.5-12.5
		V445.72c1.955-0.149,3.5-1.766,3.5-3.759c0-2.091-1.696-3.787-3.788-3.787s-3.788,1.696-3.788,3.787
		c0,1.848,1.325,3.382,3.076,3.716v12.497C428.138,458.644,428.007,469.674,416.638,469.674z"/>
	<path fill="#DE3C21" d="M242.213,466.009c-2.151,0-3.921,1.597-4.225,3.665h-50.35c-11.349,0-11.499-11.031-11.5-11.5v-12.497
		c1.751-0.334,3.076-1.868,3.076-3.716c0-2.091-1.696-3.787-3.788-3.787c-2.092,0-3.788,1.696-3.788,3.787
		c0,1.993,1.545,3.609,3.5,3.759v12.454c0,0.125,0.143,12.5,12.5,12.5h50.325c0.195,2.185,2.015,3.91,4.25,3.91
		c2.364,0,4.288-1.924,4.288-4.288C246.501,467.932,244.577,466.009,242.213,466.009z M242.213,473.584
		c-1.813,0-3.288-1.475-3.288-3.288c0-1.812,1.475-3.287,3.288-3.287s3.288,1.475,3.288,3.287
		C245.5,472.109,244.026,473.584,242.213,473.584z"/>
	<path fill="#DE3C21" d="M366.35,470.296c0-2.364-1.924-4.287-4.288-4.287c-2.364,0-4.288,1.923-4.288,4.287
		c0,2.364,1.924,4.288,4.288,4.288S366.35,472.66,366.35,470.296z M362.062,473.584c-1.813,0-3.288-1.475-3.288-3.288
		s1.475-3.287,3.288-3.287c1.813,0,3.288,1.475,3.288,3.287C365.35,472.109,363.875,473.584,362.062,473.584z"/>
	<path fill="#DE3C21" d="M91.854,219.749c2.293,0,4.155-1.814,4.267-4.079c0.007,0,0.013,0.004,0.021,0.004h12.496
		c5.709,0,8.311-3.144,9.5-5.992v58.492c0,0.126,0.051,0.238,0.128,0.326c-2.05,0.32-3.628,2.082-3.628,4.22
		c0,2.364,1.924,4.288,4.288,4.288c2.364,0,4.288-1.924,4.288-4.288c0-2.323-1.86-4.209-4.167-4.275
		c0.053-0.079,0.091-0.169,0.091-0.272v-63v-4.165v-3.781c1.991-0.112,3.576-1.747,3.576-3.767c0-2.091-1.696-3.787-3.788-3.787
		c-2.092,0-3.788,1.696-3.788,3.787c0,1.822,1.287,3.341,3,3.703v3.844v4.165c0,0.388-0.108,9.5-9.5,9.5H96.142
		c-0.028,0-0.051,0.011-0.078,0.016c-0.365-1.996-2.11-3.515-4.21-3.515c-2.364,0-4.288,1.923-4.288,4.287
		C87.566,217.825,89.49,219.749,91.854,219.749z M122.213,272.72c0,1.813-1.475,3.288-3.288,3.288s-3.288-1.475-3.288-3.288
		c0-1.812,1.475-3.287,3.288-3.287S122.213,270.908,122.213,272.72z M91.854,212.174c1.813,0,3.288,1.475,3.288,3.287
		c0,1.813-1.475,3.288-3.288,3.288s-3.288-1.475-3.288-3.288C88.566,213.649,90.041,212.174,91.854,212.174z"/>
	<path fill="#DE3C21" d="M53.636,272.462c0,2.364,1.924,4.288,4.288,4.288c2.366,0,4.289-1.924,4.289-4.288
		c0-2.197-1.666-3.992-3.798-4.239c0.002-0.017,0.01-0.032,0.01-0.049v-17.475c1.853-0.247,3.287-1.817,3.287-3.738
		c0-2.092-1.696-3.788-3.787-3.788c-2.092,0-3.788,1.696-3.788,3.788c0,1.921,1.435,3.49,3.287,3.738v17.475
		c0,0.018,0.008,0.032,0.01,0.05C55.303,268.471,53.636,270.266,53.636,272.462z M57.926,269.174c1.812,0,3.287,1.475,3.287,3.288
		s-1.475,3.288-3.287,3.288c-1.813,0-3.288-1.475-3.288-3.288S56.113,269.174,57.926,269.174z"/>
	<path fill="#DE3C21" d="M298.638,315.462c0,2.364,1.923,4.288,4.287,4.288s4.288-1.924,4.288-4.288
		c0-2.196-1.666-3.991-3.797-4.238c0.002-0.017,0.01-0.032,0.01-0.05v-34.262c1.853-0.247,3.287-1.817,3.287-3.738
		c0-2.092-1.696-3.788-3.788-3.788c-2.091,0-3.787,1.696-3.787,3.788c0,1.921,1.435,3.491,3.288,3.738v34.262
		c0,0.018,0.008,0.032,0.01,0.049C300.305,311.469,298.638,313.265,298.638,315.462z M302.925,312.174
		c1.813,0,3.288,1.475,3.288,3.288s-1.475,3.288-3.288,3.288c-1.812,0-3.287-1.475-3.287-3.288S301.112,312.174,302.925,312.174z"/>
	<path fill="#DE3C21" d="M245.926,348.674c-1.822,0-3.341,1.287-3.704,3h-11.797c-0.125,0-12.5,0.143-12.5,12.5v34.789
		c-2.228,0.151-4,1.992-4,4.258c0,2.364,1.924,4.288,4.288,4.288c2.364,0,4.288-1.924,4.288-4.288c0-2.12-1.551-3.874-3.576-4.215
		v-34.832c0-11.35,11.031-11.499,11.5-11.5h11.734c0.112,1.991,1.747,3.575,3.767,3.575c2.092,0,3.788-1.696,3.788-3.788
		C249.714,350.37,248.018,348.674,245.926,348.674z M221.5,403.22c0,1.813-1.475,3.288-3.288,3.288s-3.288-1.475-3.288-3.288
		c0-1.812,1.475-3.287,3.288-3.287S221.5,401.408,221.5,403.22z"/>
	<path fill="#DE3C21" d="M362.767,352.674H374.5c0.47,0,11.5,0.131,11.5,11.5v34.832c-2.024,0.342-3.575,2.095-3.575,4.215
		c0,2.364,1.924,4.288,4.288,4.288c2.364,0,4.287-1.924,4.287-4.289c0-2.266-1.772-4.107-4-4.258v-34.789
		c0-12.357-12.375-12.499-12.5-12.499h-11.797c-0.363-1.713-1.882-3-3.703-3c-2.092,0-3.788,1.696-3.788,3.787
		c0,2.092,1.696,3.788,3.788,3.788C361.019,356.249,362.654,354.665,362.767,352.674z M390,403.22c0,1.813-1.475,3.288-3.287,3.288
		c-1.813,0-3.288-1.475-3.288-3.288c0-1.812,1.475-3.287,3.288-3.287C388.525,399.933,390,401.408,390,403.22z"/>
	<path fill="#DE3C21" d="M508.476,402.23c-0.017-0.002-0.031-0.01-0.049-0.01h-34.263c-0.247-1.853-1.817-3.287-3.738-3.287
		c-2.092,0-3.788,1.696-3.788,3.788c-0.001,2.091,1.695,3.787,3.787,3.787c1.921,0,3.491-1.435,3.738-3.288h34.263
		c0.017,0,0.032-0.008,0.049-0.01c0.246,2.132,2.042,3.798,4.239,3.798c2.364,0,4.288-1.923,4.288-4.287
		c0-2.364-1.924-4.288-4.288-4.288C510.518,398.433,508.723,400.099,508.476,402.23z M516.001,402.721
		c0,1.812-1.475,3.287-3.288,3.287s-3.288-1.475-3.288-3.287c0-1.813,1.474-3.288,3.288-3.288
		C514.526,399.433,516.001,400.908,516.001,402.721z"/>
	<path fill="#DE3C21" d="M97.306,403.21c0.017,0.002,0.032,0.01,0.049,0.01h34.263c0.247,1.853,1.817,3.288,3.738,3.288
		c2.092,0,3.788-1.696,3.788-3.787c-0.002-2.092-1.698-3.788-3.79-3.788c-1.92,0-3.49,1.434-3.737,3.287H97.354
		c-0.017,0-0.032,0.008-0.049,0.01c-0.247-2.131-2.042-3.797-4.238-3.797c-2.364,0-4.288,1.924-4.288,4.288
		c0,2.364,1.923,4.287,4.288,4.287C95.264,407.008,97.059,405.342,97.306,403.21z M89.778,402.722c0-1.813,1.475-3.288,3.288-3.288
		c1.813,0,3.288,1.475,3.288,3.288c0,1.812-1.475,3.287-3.288,3.287S89.778,404.534,89.778,402.722z"/>
	<path fill="#DE3C21" d="M233.125,574.703H128.851c-0.306-0.001-7.5-0.104-7.5-7.5v-11.504c1.853-0.247,3.288-1.817,3.288-3.738
		c0-2.091-1.696-3.787-3.788-3.787c-2.092,0-3.788,1.696-3.788,3.787c0,1.921,1.435,3.491,3.288,3.738v11.504
		c0,8.402,8.415,8.5,8.5,8.5h104.275c0.276,0,0.5-0.224,0.5-0.5S233.401,574.703,233.125,574.703z"/>
	<path fill="#DE3C21" d="M367.562,570.954c-2.364,0-4.288,1.923-4.288,4.287s1.924,4.287,4.288,4.287
		c2.364,0,4.288-1.923,4.288-4.287S369.927,570.954,367.562,570.954z M367.562,578.528c-1.813,0-3.288-1.475-3.288-3.287
		s1.475-3.287,3.288-3.287s3.288,1.475,3.288,3.287S369.376,578.528,367.562,578.528z"/>
	<path fill="#DE3C21" d="M237.925,570.954c-2.364,0-4.288,1.923-4.288,4.287s1.924,4.287,4.288,4.287s4.288-1.923,4.288-4.287
		S240.289,570.954,237.925,570.954z M237.925,578.528c-1.813,0-3.288-1.475-3.288-3.287s1.475-3.287,3.288-3.287
		s3.288,1.475,3.288,3.287S239.738,578.528,237.925,578.528z"/>
	<path fill="#DE3C21" d="M484.638,548.174c-2.092,0-3.788,1.696-3.788,3.787c0,1.921,1.435,3.491,3.288,3.738v11.504
		c0,7.396-7.194,7.499-7.5,7.5H372.363c-0.276,0-0.5,0.224-0.5,0.5s0.224,0.5,0.5,0.5h104.274c0.085,0,8.5-0.098,8.5-8.5v-11.504
		c1.853-0.247,3.288-1.817,3.288-3.738C488.426,549.87,486.73,548.174,484.638,548.174z"/>
	<path fill="#DE3C21" d="M548.425,446.174c-2.092,0-3.788,1.696-3.788,3.787c0,1.993,1.545,3.609,3.5,3.759v42.454
		c0,0.47-0.131,11.5-11.5,11.5h-19.642c-0.026-2.342-1.935-4.24-4.283-4.24c-2.364,0-4.288,1.924-4.288,4.288
		c0,2.364,1.924,4.287,4.288,4.287c2.036,0,3.738-1.429,4.173-3.335h19.752c12.357,0,12.5-12.375,12.5-12.5v-42.497
		c1.751-0.334,3.076-1.868,3.076-3.716C552.213,447.87,550.517,446.174,548.425,446.174z M512.713,511.009
		c-1.813,0-3.288-1.475-3.288-3.287c0-1.813,1.475-3.288,3.288-3.288s3.288,1.475,3.288,3.288
		C516.001,509.534,514.526,511.009,512.713,511.009z"/>
	<path fill="#DE3C21" d="M94.748,503.433c-2.348,0-4.257,1.898-4.283,4.24H70.823c-11.349,0-11.499-11.031-11.5-11.5V453.72
		c1.955-0.15,3.5-1.766,3.5-3.759c0-2.091-1.696-3.787-3.788-3.787c-2.092,0-3.788,1.696-3.788,3.787
		c0,1.848,1.325,3.382,3.076,3.716v42.497c0,0.125,0.143,12.5,12.5,12.5h19.752c0.435,1.906,2.137,3.335,4.173,3.335
		c2.364,0,4.288-1.923,4.288-4.287C99.036,505.358,97.112,503.433,94.748,503.433z M94.748,511.009
		c-1.813,0-3.288-1.475-3.288-3.287c0-1.813,1.475-3.288,3.288-3.288s3.288,1.475,3.288,3.288
		C98.036,509.534,96.561,511.009,94.748,511.009z"/>
	<path fill="#DE3C21" d="M298.638,514.463c0,2.363,1.923,4.287,4.287,4.287s4.288-1.924,4.288-4.288
		c0-2.196-1.666-3.991-3.797-4.238c0.002-0.017,0.01-0.032,0.01-0.05v-17.475c1.853-0.247,3.287-1.817,3.287-3.737
		c0-2.092-1.696-3.788-3.788-3.788c-2.091,0-3.787,1.696-3.787,3.788c0,1.921,1.435,3.491,3.288,3.738v17.475
		c0,0.018,0.008,0.032,0.01,0.049C300.305,510.47,298.638,512.266,298.638,514.463z M302.925,511.174
		c1.813,0,3.288,1.475,3.288,3.288s-1.475,3.288-3.288,3.288c-1.812,0-3.287-1.475-3.287-3.288S301.112,511.174,302.925,511.174z"/>
	<polygon fill="#DE3C21" points="57.529,220.794 57.549,220.814 66.306,212.057 63.891,209.642 57.252,216.281 53.174,212.202 
		50.759,214.618 57.232,221.091 	"/>
	<path fill="#DE3C21" d="M41.263,218.774l-1.687,2.707l3.05,1.254l-0.921,3.014l3.282,0.496l-0.1,3.133l3.306-0.291l0.727,3.055
		l3.121-1.058l1.508,2.788l2.742-1.757l2.192,2.344l2.192-2.344l2.742,1.757l1.508-2.788l3.12,1.058l0.728-3.055l3.306,0.291
		l-0.1-3.133l3.281-0.496l-0.921-3.014l3.05-1.254l-1.687-2.707l2.625-1.931l-2.348-2.226l2.033-2.486l-2.861-1.605l1.315-2.883
		l-3.191-0.882l0.514-3.098l-3.319-0.104l-0.317-3.118l-3.239,0.68l-1.125-2.943l-2.955,1.417l-1.865-2.586l-2.486,2.067
		l-2.486-2.067l-1.865,2.586l-2.955-1.417l-1.125,2.943l-3.239-0.68l-0.317,3.118l-3.32,0.104l0.514,3.098l-3.191,0.882l1.315,2.883
		l-2.861,1.605l2.033,2.486l-2.348,2.226L41.263,218.774z M40.48,212.42l2.624-1.473l-1.209-2.653l2.929-0.81l-0.474-2.858
		l3.052-0.096l0.293-2.882l2.985,0.627l1.042-2.727l2.731,1.31l1.727-2.396l2.302,1.914l2.302-1.914l1.727,2.396l2.731-1.31
		l1.042,2.727l2.985-0.627l0.293,2.882l3.052,0.096l-0.474,2.858l2.929,0.81l-1.209,2.653l2.624,1.473l-1.867,2.283l2.154,2.043
		l-2.407,1.771l1.55,2.488l-2.798,1.15l0.849,2.778l-3.015,0.456l0.093,2.894L68,228.015l-0.674,2.827l-2.88-0.976l-1.396,2.583
		l-2.536-1.625l-2.031,2.171l-2.031-2.171l-2.536,1.625l-1.396-2.583l-2.881,0.976l-0.673-2.827l-3.043,0.269l0.092-2.894
		L43,224.933l0.849-2.778l-2.798-1.15l1.55-2.488l-2.407-1.771l2.154-2.043L40.48,212.42z"/>
	<polygon fill="#DE3C21" points="157.824,266.171 153.441,270.554 149.207,266.32 146.82,268.707 151.054,272.941 146.969,277.026 
		149.356,279.412 153.441,275.327 157.675,279.561 160.061,277.175 155.827,272.941 160.21,268.557 	"/>
	<path fill="#DE3C21" d="M170.98,271.781l2.033-2.486l-2.861-1.605l1.315-2.882l-3.191-0.884l0.514-3.097l-3.319-0.104l-0.317-3.117
		l-3.238,0.679l-1.126-2.943l-2.955,1.418l-1.865-2.587l-2.486,2.068l-2.486-2.068l-1.865,2.587l-2.955-1.418l-1.126,2.943
		l-3.238-0.679l-0.317,3.117l-3.32,0.104l0.514,3.097l-3.191,0.884l1.315,2.882l-2.861,1.605l2.033,2.486l-2.348,2.228l2.625,1.931
		l-1.686,2.705l3.05,1.254l-0.921,3.016l3.281,0.495l-0.1,3.134l3.306-0.291l0.727,3.054l3.121-1.057l1.508,2.786l2.742-1.756
		l2.193,2.345l2.193-2.345l2.742,1.756l1.508-2.786l3.12,1.057l0.728-3.054l3.306,0.291l-0.1-3.134l3.281-0.495l-0.921-3.016
		l3.05-1.254l-1.689-2.705l2.625-1.931L170.98,271.781z M170.913,278.171l-2.798,1.15l0.85,2.777l-3.015,0.456l0.093,2.894
		L163,285.18l-0.674,2.827l-2.88-0.977l-1.396,2.583l-2.537-1.625l-2.031,2.171l-2.031-2.171l-2.537,1.625l-1.396-2.583
		l-2.881,0.977l-0.673-2.827l-3.043,0.268l0.093-2.894L138,282.098l0.849-2.777l-2.798-1.15l1.55-2.488l-2.408-1.771l2.154-2.044
		l-1.867-2.283l2.624-1.473l-1.209-2.653l2.929-0.81l-0.474-2.858l3.052-0.095l0.293-2.883l2.985,0.626l1.042-2.727l2.731,1.311
		l1.727-2.396l2.302,1.914l2.302-1.914l1.727,2.396l2.731-1.311l1.042,2.727l2.985-0.626l0.293,2.883l3.052,0.095l-0.474,2.858
		l2.929,0.81l-1.209,2.653l2.624,1.473l-1.867,2.283l2.154,2.044l-2.408,1.771L170.913,278.171z"/>
	<path fill="#DE3C21" d="M302.43,205.389c12.497,0,22.627-5.611,22.627-11.834c0-6.223-10.13-11.267-22.627-11.267
		c-12.496,0-22.626,5.044-22.626,11.267C279.804,199.778,289.934,205.389,302.43,205.389z"/>
	<path fill="#DE3C21" d="M279.804,208.314c0,6.223,10.13,11.267,22.626,11.267c12.497,0,22.627-5.044,22.627-11.267v-10.147
		c0,6.223-10.13,11.267-22.627,11.267c-12.496,0-22.626-5.044-22.626-11.267V208.314z"/>
	<path fill="#DE3C21" d="M279.804,222.039c0,6.222,10.13,11.266,22.626,11.266c12.497,0,22.627-5.044,22.627-11.266v-10.147
		c0,6.223-10.13,11.267-22.627,11.267c-12.496,0-22.626-5.044-22.626-11.267V222.039z"/>
	<path fill="#DE3C21" d="M279.804,235.763c0,6.222,10.13,11.266,22.626,11.266c12.497,0,22.627-5.044,22.627-11.266v-10.147
		c0,6.223-10.13,11.267-22.627,11.267c-12.496,0-22.626-5.044-22.626-11.267V235.763z"/>
	<path fill="#DE3C21" d="M176.963,385.266c10.869,0,19.68-4.881,19.68-10.293s-8.811-9.8-19.68-9.8c-10.869,0-19.68,4.388-19.68,9.8
		S166.094,385.266,176.963,385.266z"/>
	<path fill="#DE3C21" d="M157.283,387.81c0,5.412,8.811,9.799,19.68,9.799c10.869,0,19.68-4.387,19.68-9.799v-8.825
		c0,5.412-8.811,9.799-19.68,9.799c-10.869,0-19.68-4.387-19.68-9.799V387.81z"/>
	<path fill="#DE3C21" d="M157.283,399.748c0,5.412,8.811,9.799,19.68,9.799c10.869,0,19.68-4.387,19.68-9.799v-8.825
		c0,5.412-8.811,9.799-19.68,9.799c-10.869,0-19.68-4.387-19.68-9.799V399.748z"/>
	<path fill="#DE3C21" d="M157.283,411.685c0,5.412,8.811,9.799,19.68,9.799c10.869,0,19.68-4.387,19.68-9.799v-8.825
		c0,5.412-8.811,9.799-19.68,9.799c-10.869,0-19.68-4.387-19.68-9.799V411.685z"/>
	<path fill="#DE3C21" d="M464.359,253.406c-2.622-4.543-5.249-9.084-7.874-13.625c-0.775-1.342-1.544-2.689-2.329-4.025
		c-0.545-0.927-1.263-1.682-2.278-2.095c-1.329-0.54-2.956-0.043-3.926,1.335c-0.836,1.188-1.545,2.467-2.275,3.726
		c-3.243,5.595-6.476,11.195-9.709,16.797c-2.864,4.963-5.732,9.925-8.573,14.902c-0.343,0.6-0.527,1.291-0.784,1.94v1.416
		c0.318,0.931,0.817,1.754,1.761,2.12c0.687,0.266,1.444,0.495,2.171,0.499c7.042,0.037,14.084,0.022,21.127,0.022
		c6.366,0,12.733,0.004,19.099-0.002c1.938-0.002,3.492-0.635,4.17-2.639v-1.416c-0.665-2.289-2.104-4.177-3.251-6.211
		C469.282,261.881,466.809,257.65,464.359,253.406z M449.463,239.511c0.42-0.157,0.874-0.225,1.104-0.283
		c2.013-0.003,3.642,1.52,3.661,3.308c0.008,0.743-0.175,1.488-0.282,2.231c-0.235,1.641-0.48,3.281-0.714,4.922
		c-0.206,1.44-0.405,2.88-0.604,4.321c-0.242,1.75-0.487,3.5-0.717,5.252c-0.087,0.663-0.57,1.21-1.111,1.206
		c-0.538-0.004-1.075-0.598-1.162-1.234c-0.297-2.184-0.609-4.367-0.914-6.551c-0.26-1.859-0.517-3.718-0.778-5.577
		c-0.191-1.363-0.396-2.724-0.579-4.088C447.168,241.537,448.056,240.04,449.463,239.511z M450.786,271.727
		c-1.952,0.003-3.486-1.536-3.488-3.497c-0.001-1.797,1.608-3.418,3.393-3.421c1.956-0.003,3.542,1.531,3.562,3.445
		C454.272,270.161,452.711,271.725,450.786,271.727z"/>
	<path fill="#DE3C21" d="M564.201,404.941l2.625-1.931l-2.35-2.228l2.032-2.486l-2.859-1.605l1.314-2.883l-3.191-0.883l0.514-3.097
		l-3.319-0.105l-0.317-3.117l-3.238,0.68l-1.125-2.943l-2.956,1.418l-1.865-2.587l-2.485,2.068l-2.486-2.067l-1.865,2.586
		l-2.955-1.418l-1.125,2.943l-3.238-0.68l-0.317,3.117l-3.319,0.105l0.514,3.097l-3.191,0.883l1.314,2.883l-2.859,1.605l2.032,2.486
		l-2.348,2.228l2.625,1.931l-1.687,2.705l3.05,1.254l-0.921,3.016l3.281,0.495l-0.1,3.134l3.305-0.291l0.728,3.054l3.121-1.057
		l1.508,2.787l2.741-1.757l2.193,2.344l2.193-2.344l2.741,1.757l1.508-2.787l3.12,1.057l0.728-3.054l3.306,0.291l-0.1-3.134
		l3.281-0.495l-0.921-3.016l3.05-1.254L564.201,404.941z M562.461,411.098l-3.014,0.456l0.092,2.894l-3.042-0.268l-0.675,2.827
		l-2.88-0.977l-1.396,2.582l-2.536-1.624l-2.031,2.172l-2.031-2.172l-2.536,1.624l-1.396-2.582l-2.881,0.977l-0.673-2.827
		l-3.043,0.268l0.092-2.894l-3.014-0.456l0.849-2.777l-2.798-1.15l1.55-2.488l-2.408-1.771l2.154-2.044l-1.866-2.283l2.623-1.473
		l-1.209-2.653l2.93-0.81l-0.475-2.858l3.052-0.096l0.294-2.883l2.984,0.627l1.043-2.727l2.73,1.311l1.727-2.396l2.303,1.915
		l2.302-1.914l1.727,2.396l2.731-1.311l1.043,2.727l2.984-0.627l0.294,2.883l3.052,0.096l-0.475,2.858l2.93,0.81l-1.209,2.653
		l2.623,1.473l-1.866,2.283l2.154,2.044l-2.408,1.771l1.548,2.487l-2.798,1.15L562.461,411.098z"/>
	<path fill="#DE3C21" d="M546.891,395.429c-3.393,0-4.485,1.541-4.485,3.179v1.19c0,0.351,0.137,0.487,0.488,0.487h1.618
		c0.332,0,0.448-0.137,0.448-0.487v-0.761c0-0.976,0.644-1.463,1.931-1.463c1.268,0,1.931,0.487,1.931,1.463v0.585
		c0,0.722-0.429,1.014-0.741,1.189l-1.794,0.916c-0.604,0.293-1.229,0.663-1.229,1.756v1.345c0,0.352,0.137,0.469,0.468,0.469h1.717
		c0.331,0,0.448-0.117,0.448-0.469v-0.682c0-0.624,0.272-0.839,0.819-1.093l1.111-0.507c0.8-0.351,1.813-1.15,1.813-3.022v-0.917
		C551.415,396.97,550.284,395.429,546.891,395.429z"/>
	<path fill="#DE3C21" d="M547.242,406.292h-1.717c-0.331,0-0.468,0.137-0.468,0.487v1.58c0,0.351,0.137,0.487,0.468,0.487h1.717
		c0.331,0,0.448-0.137,0.448-0.487v-1.58C547.69,406.428,547.573,406.292,547.242,406.292z"/>
	<path fill="#DE3C21" d="M58.297,420.624l2.193-2.344l2.742,1.757l1.507-2.787l3.12,1.057l0.729-3.054l3.305,0.291l-0.1-3.134
		l3.282-0.495l-0.921-3.016l3.05-1.254l-1.686-2.705l2.625-1.931l-2.348-2.228l2.033-2.486l-2.86-1.605l1.314-2.882l-3.19-0.884
		l0.514-3.097l-3.32-0.105l-0.316-3.117l-3.239,0.68l-1.125-2.943l-2.955,1.418l-1.865-2.587l-2.486,2.068l-2.486-2.068
		l-1.865,2.587l-2.955-1.418l-1.125,2.943l-3.239-0.68l-0.317,3.117l-3.32,0.105l0.514,3.097l-3.191,0.884l1.315,2.882l-2.861,1.605
		l2.033,2.486l-2.348,2.228l2.625,1.931l-1.686,2.705l3.05,1.254l-0.921,3.016l3.282,0.495l-0.1,3.134l3.305-0.291l0.727,3.054
		l3.121-1.057l1.508,2.787l2.738-1.757L58.297,420.624z M52.333,416.031l-2.88,0.977l-0.673-2.827l-3.042,0.268l0.092-2.894
		l-3.015-0.456l0.849-2.777l-2.798-1.15l1.549-2.488l-2.407-1.771l2.154-2.044l-1.867-2.283l2.624-1.473l-1.209-2.653l2.929-0.81
		l-0.474-2.858l3.052-0.096l0.293-2.883l2.985,0.627l1.042-2.727l2.731,1.311l1.727-2.396l2.302,1.914l2.302-1.914l1.727,2.396
		l2.731-1.311l1.042,2.727l2.986-0.627l0.293,2.883l3.052,0.096l-0.474,2.858l2.929,0.81l-1.209,2.653l2.623,1.473l-1.867,2.283
		l2.154,2.044l-2.408,1.771l1.55,2.488l-2.798,1.15l0.849,2.777l-3.014,0.456l0.092,2.894l-3.042-0.268l-0.674,2.827l-2.88-0.977
		l-1.396,2.582l-2.537-1.624l-2.031,2.172l-2.032-2.172l-2.536,1.624L52.333,416.031z"/>
	<path fill="#DE3C21" d="M56.28,399.038c0-0.976,0.644-1.463,1.93-1.463c1.268,0,1.931,0.487,1.931,1.463v0.585
		c0,0.722-0.429,1.014-0.741,1.189l-1.794,0.916c-0.604,0.293-1.229,0.663-1.229,1.756v1.345c0,0.352,0.137,0.469,0.468,0.469h1.716
		c0.332,0,0.449-0.117,0.449-0.469v-0.682c0-0.624,0.273-0.839,0.819-1.093l1.112-0.507c0.799-0.351,1.813-1.15,1.813-3.022v-0.917
		c-0.02-1.638-1.15-3.179-4.544-3.179c-3.393,0-4.485,1.541-4.485,3.179v1.19c0,0.351,0.136,0.488,0.487,0.488h1.619
		c0.332,0,0.449-0.137,0.449-0.487V399.038z"/>
	<path fill="#DE3C21" d="M58.561,406.292h-1.716c-0.332,0-0.468,0.137-0.468,0.487v1.58c0,0.351,0.137,0.487,0.468,0.487h1.716
		c0.332,0,0.449-0.137,0.449-0.487v-1.58C59.009,406.428,58.892,406.292,58.561,406.292z"/>
	<path fill="#DE3C21" d="M456.803,372.476L456.803,372.476h-8.285v2.399c0,3.234-2.622,5.856-5.856,5.856
		c-3.235,0-5.857-2.622-5.857-5.856v-2.399h-16.11v2.399c0,3.234-2.622,5.856-5.857,5.856c-3.234,0-5.856-2.622-5.856-5.856v-2.399
		h-8.132v49.532h55.953V372.476z M452.522,418.339h-47.544v-31.798h47.544V418.339z"/>
	<path fill="#DE3C21" d="M418.432,373.623v-1.146v-2.828c0-1.985-1.609-3.593-3.593-3.593c-1.984,0-3.593,1.608-3.593,3.593v2.828
		v1.146c0,1.985,1.609,3.593,3.593,3.593S418.432,375.608,418.432,373.623z"/>
	<path fill="#DE3C21" d="M446.254,373.623v-1.146v-2.828c0-1.985-1.608-3.593-3.592-3.593s-3.592,1.608-3.592,3.593v2.828v1.146
		c0,1.985,1.608,3.593,3.592,3.593S446.254,375.608,446.254,373.623z"/>
	<rect x="420.695" y="390.669" fill="#DE3C21" width="6.297" height="5.504"/>
	<rect x="430.938" y="390.669" fill="#DE3C21" width="6.297" height="5.504"/>
	<rect x="441.181" y="390.669" fill="#DE3C21" width="6.297" height="5.504"/>
	<rect x="420.695" y="399.688" fill="#DE3C21" width="6.297" height="5.504"/>
	<rect x="430.938" y="399.688" fill="#DE3C21" width="6.297" height="5.504"/>
	<rect x="441.181" y="399.688" fill="#DE3C21" width="6.297" height="5.504"/>
	<rect x="420.695" y="409.167" fill="#DE3C21" width="6.297" height="5.504"/>
	<rect x="410.861" y="399.688" fill="#DE3C21" width="6.297" height="5.504"/>
	<rect x="410.861" y="409.167" fill="#DE3C21" width="6.297" height="5.504"/>
	<rect x="430.938" y="409.167" fill="#DE3C21" width="6.297" height="5.504"/>
	<rect x="441.181" y="409.167" fill="#DE3C21" width="6.297" height="5.504"/>
	<path fill="#DE3C21" d="M328.272,61.606c0,4.21-3.413,7.623-7.623,7.623c-4.211,0-7.624-3.413-7.624-7.623v-3.123h-20.972v3.123
		c0,4.21-3.413,7.623-7.624,7.623c-4.21,0-7.623-3.413-7.623-7.623v-3.123H266.22v64.478h72.836V58.483h-10.784V61.606z
		 M333.484,118.185h-61.891V76.792h61.891V118.185z"/>
	<path fill="#DE3C21" d="M284.429,64.652c2.583,0,4.677-2.094,4.677-4.677v-1.492v-3.682c0-2.583-2.094-4.677-4.677-4.677
		s-4.677,2.094-4.677,4.677v3.682v1.492C279.752,62.558,281.846,64.652,284.429,64.652z"/>
	<path fill="#DE3C21" d="M320.648,64.652c2.583,0,4.676-2.094,4.676-4.677v-1.492v-3.682c0-2.583-2.093-4.677-4.676-4.677
		s-4.676,2.094-4.676,4.677v3.682v1.492C315.972,62.558,318.065,64.652,320.648,64.652z"/>
	<path fill="#DE3C21" d="M115.257,518.687h-0.4c-0.11,0-0.15,0.05-0.15,0.15v0.929c0,0.101,0.04,0.15,0.15,0.15h0.4
		c0.1,0,0.14-0.05,0.14-0.15v-0.929C115.397,518.737,115.357,518.687,115.257,518.687z"/>
	<path fill="#DE3C21" d="M161.627,518.688c-0.11,0-0.15,0.05-0.15,0.15v0.929c0,0.101,0.04,0.15,0.15,0.15h0.4
		c0.1,0,0.14-0.05,0.14-0.15v-0.929c0-0.101-0.04-0.15-0.14-0.15H161.627z"/>
	<path fill="#DE3C21" d="M289.676,374.071c-1.227,0-2.22,0.981-2.22,2.211c0,1.219,0.993,2.208,2.22,2.208
		c1.218,0,2.211-0.989,2.211-2.208C291.887,375.052,290.893,374.071,289.676,374.071z"/>
	<path fill="#DE3C21" d="M289.676,364.72c-1.227,0-2.22,0.989-2.22,2.212c0,1.218,0.993,2.211,2.22,2.211
		c1.218,0,2.211-0.993,2.211-2.211C291.887,365.709,290.893,364.72,289.676,364.72z"/>
	<path fill="#DE3C21" d="M289.676,355.365c-1.227,0-2.22,0.993-2.22,2.212c0,1.23,0.993,2.219,2.22,2.219
		c1.218,0,2.211-0.989,2.211-2.219C291.887,356.358,290.893,355.365,289.676,355.365z"/>
	<path fill="#DE3C21" d="M315.516,374.952h-19.232c-0.734,0-1.327,0.592-1.327,1.33c0,0.731,0.593,1.323,1.327,1.323h19.232
		c0.734,0,1.319-0.592,1.319-1.323C316.836,375.544,316.25,374.952,315.516,374.952z"/>
	<path fill="#DE3C21" d="M277.458,343.582v45.319c0,1.223,0.994,2.215,2.212,2.215h45.944c1.219,0,2.204-0.992,2.204-2.215v-45.319
		c0-1.227-0.985-2.22-2.204-2.22h-6.092v-1.211c0-0.73-0.583-1.327-1.318-1.327h-7.09c-0.392-1.576-1.209-2.979-2.311-4.089
		c-1.585-1.577-3.763-2.562-6.159-2.562h-0.008c-2.395,0-4.573,0.985-6.158,2.562c-1.103,1.11-1.92,2.513-2.304,4.089h-7.094
		c-0.734,0-1.326,0.597-1.326,1.327v1.211h-6.084C278.452,341.362,277.458,342.355,277.458,343.582z M298.354,336.613
		c1.102-1.093,2.62-1.778,4.281-1.778h0.008c1.661,0,3.18,0.685,4.282,1.778c0.617,0.618,1.101,1.381,1.409,2.211h-11.391
		C297.253,337.994,297.737,337.231,298.354,336.613z M288.406,341.483h28.462v4.193h-28.462V341.483z M281.889,345.793h3.865v1.21
		c0,0.734,0.592,1.335,1.326,1.335h31.124c0.735,0,1.318-0.601,1.318-1.335v-1.21h3.873v40.896h-41.506V345.793z"/>
	<path fill="#DE3C21" d="M315.516,356.25h-19.232c-0.734,0-1.327,0.6-1.327,1.327c0,0.734,0.593,1.335,1.327,1.335h19.232
		c0.734,0,1.319-0.601,1.319-1.335C316.836,356.85,316.25,356.25,315.516,356.25z"/>
	<path fill="#DE3C21" d="M315.516,365.596h-19.232c-0.734,0-1.327,0.601-1.327,1.336c0,0.734,0.593,1.327,1.327,1.327h19.232
		c0.734,0,1.319-0.593,1.319-1.327C316.836,366.197,316.25,365.596,315.516,365.596z"/>
	<path fill="#DE3C21" d="M118.638,179.659c14.128,0,25.622-11.494,25.622-25.622c0-14.127-11.494-25.62-25.622-25.62
		s-25.622,11.493-25.622,25.62C93.016,168.166,104.51,179.659,118.638,179.659z M118.638,132.835
		c11.692,0,21.205,9.512,21.205,21.203c0,11.692-9.512,21.205-21.205,21.205s-21.205-9.512-21.205-21.205
		C97.433,142.346,106.945,132.835,118.638,132.835z"/>
	<path fill="#DE3C21" d="M118.638,169.499c8.525,0,15.461-6.936,15.461-15.461c0-8.525-6.936-15.46-15.461-15.46
		s-15.461,6.936-15.461,15.46C103.176,162.563,110.112,169.499,118.638,169.499z M118.638,142.994
		c6.09,0,11.044,4.954,11.044,11.043c0,6.09-4.955,11.044-11.044,11.044s-11.044-4.955-11.044-11.044
		C107.593,147.948,112.548,142.994,118.638,142.994z"/>
	<circle fill="#DE3C21" cx="118.638" cy="154.038" r="4.417"/>
	<path fill="#DE3C21" d="M479.241,149.465c1.921,3.231,5.239,0.874,6.025,0.524c0.786-0.349,5.676-3.231,7.946-4.191
		c2.271-0.961,3.319,0.284,4.716,1.975c1.397,1.692,10.304,10.61,12.051,12.002c1.746,1.392,3.58,0.781,5.326,0.606
		c1.747-0.175,4.624-0.606,4.624-0.606v-19.129c0,0-7.418,1.659-9.339,2.27c-1.921,0.611-2.882-0.524-4.366-1.834
		c-1.485-1.31-4.716-4.017-6.2-5.065c-1.485-1.048-2.532-1.222-4.628,0c-2.096,1.223-15.02,8.383-15.02,8.383
		S477.32,146.234,479.241,149.465z"/>
	<path fill="#DE3C21" d="M499.238,162.651c0,0,2.62,2.707,3.668,3.668c1.048,0.961,2.619,1.484,4.017,0.437
		c1.397-1.048,1.222-2.707-0.612-4.716c-1.834-2.009-7.422-7.335-8.994-8.907c-1.572-1.572-2.445-2.969-4.28-3.231
		c-4.413-0.63-7.891,4.36-12.14,3.534c-1.613-0.313-2.891-1.334-3.727-2.739c-2.309-3.884-0.089-7.129,1.967-8.362l0.072-0.042
		c0.071-0.039,4.036-2.236,7.904-4.39l-0.188-0.226c0,0-2.095-2.009-5.937-2.009c-3.843,0-10.218,4.454-11.353,5.24
		s-3.056,1.048-4.541,0.349c-3.056-1.31-6.835-2.707-6.835-2.707v21.656c1.313,0.281,2.571,0.673,3.647,1.062
		c0.405-0.72,0.937-1.399,1.584-1.999c1.504-1.395,3.429-2.195,5.283-2.195c1.472,0,2.817,0.516,3.788,1.452
		c0.919,0.887,1.421,2.067,1.498,3.339c1.011,0.198,1.919,0.657,2.627,1.34c0.714,0.688,1.183,1.56,1.391,2.521
		c1.054,0.185,2.001,0.652,2.734,1.359c0.832,0.802,1.328,1.837,1.472,2.968c1.022,0.195,1.94,0.657,2.654,1.346
		c0.992,0.957,1.531,2.283,1.517,3.736c-0.005,0.539-0.088,1.081-0.237,1.614l0.272,0.136c2.008,2.358,3.755,2.795,5.239,1.572
		c1.485-1.223,0.524-3.493,0.524-3.493s-2.794-2.882-3.755-3.842c-0.96-0.961,0.175-0.786,0.175-0.786l4.366,4.191
		c0,0,2.009,1.659,3.842,0.437c1.834-1.223,0.786-3.318,0.786-3.318s-2.881-3.144-3.929-4.192c-1.048-1.048,0-1.135,0-1.135
		l4.541,4.89c0,0,1.921,2.27,4.104,0c2.183-2.27,0-3.877,0-3.877s-3.318-3.371-3.755-4.157
		C498.19,162.389,499.238,162.651,499.238,162.651z"/>
	<path fill="#DE3C21" d="M476.575,179.34c1.334,1.286,3.912,0.94,5.759-0.775c1.847-1.714,2.263-4.146,0.93-5.432
		c-0.915-0.882-2.415-0.996-3.863-0.427c0.747-1.425,0.702-2.956-0.263-3.887c-0.864-0.834-2.253-0.977-3.626-0.51
		c0.487-1.267,0.351-2.551-0.499-3.37c-0.975-0.941-2.617-1.004-4.152-0.301c1.039-1.552,1.104-3.339,0.027-4.378
		c-1.334-1.286-3.912-0.939-5.759,0.775c-1.847,1.714-2.264,4.146-0.93,5.432c0.976,0.941,2.617,1.005,4.152,0.302
		c-1.038,1.552-1.104,3.338-0.026,4.377c0.864,0.834,2.253,0.978,3.626,0.51c-0.487,1.267-0.35,2.551,0.499,3.37
		c0.914,0.883,2.415,0.996,3.863,0.428C475.565,176.879,475.61,178.409,476.575,179.34z"/>
	<path fill="#DE3C21" d="M135.116,511.018c5.4,0.001,9.721-0.957,13.701-3.214c6.417-3.637,10.641-9.171,13.462-15.856
		c0.239-0.567,0.125-1.476-0.173-2.043c-1.255-2.384-2.433-4.852-4.018-7.01c-6.657-9.064-15.633-13.025-26.784-11.192
		c-8.567,1.409-14.731,6.563-18.961,13.925c-3.6,6.263-3.643,4.825,0.091,11.168C117.661,505.676,125.371,510.826,135.116,511.018z
		 M136.175,477.877c7.302,0.027,13.254,6.051,13.208,13.367c-0.046,7.301-6.082,13.228-13.408,13.168
		c-7.286-0.06-13.21-6.127-13.134-13.451C122.917,483.735,128.914,477.851,136.175,477.877z"/>
	<path fill="#DE3C21" d="M136.317,497.763c3.883-0.214,6.777-3.475,6.377-7.186c-0.394-3.663-3.431-6.329-6.667-5.854
		c0.735,4.129-2.328,7.069-6.42,6.316C129.606,494.996,132.63,497.966,136.317,497.763z"/>
	<path fill="#DE3C21" d="M494.804,482.895c-6.657-9.064-15.633-13.025-26.784-11.192c-8.567,1.409-14.731,6.563-18.961,13.925
		c-3.6,6.263-3.643,4.825,0.091,11.168c5.227,8.88,12.937,14.03,22.682,14.222c5.4,0.001,9.721-0.957,13.701-3.214
		c6.417-3.637,10.641-9.171,13.462-15.856c0.239-0.567,0.125-1.476-0.173-2.043C497.567,487.521,496.389,485.053,494.804,482.895z
		 M472.691,504.412c-7.286-0.06-13.21-6.127-13.134-13.451c0.076-7.226,6.073-13.11,13.334-13.084
		c7.302,0.027,13.254,6.051,13.208,13.367C486.053,498.545,480.017,504.472,472.691,504.412z"/>
	<path fill="#DE3C21" d="M472.744,484.723c0.735,4.129-2.328,7.069-6.42,6.316c-0.001,3.957,3.023,6.927,6.71,6.724
		c3.883-0.214,6.777-3.475,6.377-7.186C479.017,486.914,475.98,484.248,472.744,484.723z"/>
	<path fill="#DE3C21" d="M326.543,542.483c-2.581-2.428-3.795-3.946-7.589-3.794c-1.704,0.131-2.814,0.59-3.536,1.175
		c1.844,2.635,2.929,5.838,2.929,9.298c0,0.664-0.045,1.318-0.122,1.961l9.077,8.056c-2.129,3.361-7.809,5.976-10.64,7.116
		c-0.919-0.563-1.995-0.893-3.152-0.893h-22.96c-0.944,0-1.834,0.222-2.629,0.608c-2.983-1.258-7.982-3.726-9.948-6.831l8.137-7.222
		c-0.157-0.909-0.244-1.842-0.244-2.795c0-3.666,1.215-7.048,3.264-9.766c-0.686-0.353-1.595-0.614-2.809-0.707
		c-3.795-0.152-5.009,1.366-7.589,3.794c-2.58,2.429-5.009,4.705-8.652,8.5c-3.642,3.795-5.009,10.776-0.91,15.026
		c3.69,3.827,7.884,7.036,15.329,9.41v11.755c0,3.342,2.709,6.05,6.051,6.05h22.96c3.342,0,6.051-2.708,6.051-6.05v-11.381
		c8.217-2.406,12.657-5.753,16.544-9.784c4.098-4.25,2.732-11.231-0.911-15.026C331.552,547.188,329.123,544.912,326.543,542.483z"
		/>
	<path fill="#DE3C21" d="M288.119,549.162c0,7.725,6.263,13.987,13.988,13.987c7.725,0,13.988-6.262,13.988-13.987
		s-6.263-13.988-13.988-13.988C294.382,535.174,288.119,541.437,288.119,549.162z M307.005,545.232c1.134,0,2.052,0.918,2.052,2.051
		s-0.918,2.051-2.052,2.051c-1.132,0-2.05-0.918-2.05-2.051S305.874,545.232,307.005,545.232z M305.542,554.601
		c0.348,0.364,0.333,0.941-0.032,1.287c-0.365,0.348-0.942,0.334-1.289-0.031c-1.213-1.274-3.236-1.325-4.511-0.112
		c-0.364,0.347-0.941,0.334-1.289-0.032c-0.346-0.364-0.332-0.942,0.032-1.288c0.97-0.922,2.213-1.381,3.455-1.381
		C303.234,553.044,304.557,553.567,305.542,554.601z M297.206,545.232c1.133,0,2.052,0.918,2.052,2.051s-0.919,2.051-2.052,2.051
		c-1.132,0-2.051-0.918-2.051-2.051S296.073,545.232,297.206,545.232z"/>
	<path fill="#DE3C21" d="M293.261,102.925c2.671,2.388,5.358,4.758,7.998,7.181c0.959,0.88,1.742,0.863,2.693-0.012
		c2.6-2.389,5.353-4.62,7.845-7.116c1.775-1.778,3.545-3.706,4.748-5.882c2.065-3.736,0.95-8.333-2.146-10.694
		c-3.197-2.439-7.281-2.154-10.716,0.749c-0.35,0.296-0.696,0.596-0.833,0.714c-1.861-1.022-3.465-2.39-5.289-2.816
		c-6.106-1.426-11.374,3.766-9.497,10.642C288.893,98.726,290.992,100.897,293.261,102.925z"/>
	<path fill="#DE3C21" d="M359.673,227.461c2.22,0,4.031-1.703,4.246-3.868c0.076,0.046,0.16,0.08,0.255,0.08h12.787
		c8.384,0,8.499,8.153,8.5,8.5v28.13v43.87c0,12.357,12.375,12.5,12.5,12.5h106.108v0.003h33.434c5.79,0,10.5-4.71,10.5-10.5
		v-80.998c0-5.79-4.71-10.5-10.5-10.5h-32.305v-0.005h-8.984c-9.372,0-9.499-9.113-9.5-9.5v-4.165v-3.844
		c1.714-0.363,3.001-1.882,3.001-3.704c0-2.091-1.696-3.787-3.788-3.787s-3.788,1.696-3.788,3.787c0,2.019,1.584,3.654,3.576,3.767
		v3.781v4.165v63c0,0.103,0.038,0.193,0.091,0.272c-2.307,0.066-4.167,1.952-4.167,4.275c0,2.364,1.924,4.288,4.288,4.288
		c2.364,0,4.288-1.924,4.288-4.288c0-2.139-1.579-3.901-3.629-4.221c0.077-0.088,0.128-0.2,0.128-0.326v-58.491
		c1.189,2.848,3.791,5.992,9.5,5.992h5.866v0.005h35.423c5.238,0,9.5,4.262,9.5,9.5v80.998c0,5.238-4.262,9.5-9.5,9.5h-31.475
		v-0.003H397.961c-0.469-0.001-11.5-0.15-11.5-11.5V265.7c2.941,6.998,11.397,7.103,11.5,7.103h15.079
		c-0.002,0.054-0.016,0.104-0.016,0.158c0,2.092,1.696,3.788,3.787,3.788c2.092,0,3.788-1.696,3.788-3.788s-1.696-3.788-3.788-3.788
		c-1.685,0-3.096,1.108-3.588,2.63h-15.262c-0.47,0-11.5-0.131-11.5-11.5v-28.13v-0.179c0-0.018-0.008-0.033-0.01-0.051
		c-0.076-1.397-0.885-9.271-9.49-9.271h-12.787c-0.095,0-0.18,0.034-0.255,0.08c-0.215-2.164-2.025-3.867-4.246-3.867
		c-2.364,0-4.288,1.923-4.288,4.287C355.385,225.538,357.309,227.461,359.673,227.461z M489.214,272.72
		c0,1.813-1.475,3.288-3.288,3.288s-3.288-1.475-3.288-3.288c0-1.812,1.475-3.287,3.288-3.287S489.214,270.908,489.214,272.72z
		 M359.673,219.886c1.813,0,3.288,1.475,3.288,3.287c0,1.813-1.475,3.288-3.288,3.288s-3.288-1.475-3.288-3.288
		C356.385,221.361,357.859,219.886,359.673,219.886z"/>
</g>
</svg>
