<?xml version="1.0" encoding="utf-8"?>
<!-- Generator: Adobe Illustrator 17.0.0, SVG Export Plug-In . SVG Version: 6.00 Build 0)  -->
<!DOCTYPE svg PUBLIC "-//W3C//DTD SVG 1.1//EN" "http://www.w3.org/Graphics/SVG/1.1/DTD/svg11.dtd">
<svg version="1.1" id="Layer_1" xmlns:sketch="http://www.bohemiancoding.com/sketch/ns"
	 xmlns="http://www.w3.org/2000/svg" xmlns:xlink="http://www.w3.org/1999/xlink" x="0px" y="0px" width="72px" height="57px"
	 viewBox="0 0 72 57" enable-background="new 0 0 72 57" xml:space="preserve">
<title>Fill 12</title>
<desc>Created with Sketch.</desc>
<path fill="#CDDC39" d="M70.87,42.88c-0.513-0.707-1.271-1.172-2.133-1.309c-0.861-0.136-1.722,0.07-2.423,0.58
	c-0.985,0.713-2.058,1.385-3.203,2.016c0.16-0.92,0.065-1.902-0.326-2.819c-0.906-2.13-2.065-4.143-3.444-5.984
	c-0.008-0.011-0.018-0.02-0.025-0.031c-4.442-6.435-3.638-13.401-2.196-17.276c0.654,0.457,1.548,1.038,2.543,1.561
	c2.909,1.531,5.184,1.784,6.761,0.754c1.521-0.995,1.966-2.536,1.321-4.585c-0.489-1.556-1.567-3.32-2.709-5.19l-0.128-0.209
	c-2.086-3.416-1.793-7.005-1.696-8.184c0.011-0.131,0.019-0.234,0.021-0.304c0.042-0.947-0.744-1.141-0.833-1.16
	c-3.956-0.834-7.106-0.332-9.856,1.581c-0.566-0.473-1.295-0.758-2.088-0.758c-1.799,0-3.264,1.463-3.264,3.261
	c0,0.844,0.323,1.615,0.852,2.195c-0.246,0.328-0.49,0.657-0.728,0.98c-2.612,3.541-5.079,6.886-10.19,6.886H22.759
	c-0.561,0-1.099-0.13-1.552-0.377c-3.278-1.783-6.312-2.065-9.017-0.837C6.374,16.31,4.364,25.006,4.281,25.375
	c-0.074,0.333,0.018,0.681,0.25,0.932c0.043,0.047,1.073,1.163,2.39,2.211c1.996,1.588,3.572,2.176,4.817,1.796
	c0.725-0.222,1.648-0.873,1.93-2.721c0.525-3.455,2.187-5.538,3.509-6.013c0.728-0.26,1.417-0.088,2.105,0.529
	c2.189,1.961-2.143,8.202-4.47,11.555c-0.417,0.6-0.812,1.17-1.143,1.669c-0.011,0.013-0.021,0.027-0.031,0.04
	c-1.416,1.891-2.598,3.963-3.514,6.156c-0.499,1.196-0.481,2.562,0.051,3.745c0.02,0.045,0.043,0.09,0.065,0.133
	c-1.672-0.772-3.228-1.626-4.643-2.56c-1.502-0.989-3.529-0.574-4.52,0.927c-0.991,1.501-0.575,3.529,0.927,4.519
	c8.291,5.465,20.481,8.599,33.446,8.599c13.739,0,26.383-3.448,34.692-9.459C71.598,46.38,71.924,44.336,70.87,42.88z M50.455,3.646
	c0.65,0,1.18,0.529,1.18,1.18s-0.53,1.18-1.18,1.18c-0.651,0-1.181-0.529-1.181-1.18S49.804,3.646,50.455,3.646z M37.126,16.968
	c1.054,0,2.016-0.123,2.901-0.341l-2.197,3.784c-0.804,1.386-2.3,2.246-3.903,2.246h-3.136c-1.808,0-3.436-1.073-4.148-2.733
	l-1.267-2.956H37.126z M12.046,42.332c0.834-1.998,1.905-3.887,3.187-5.615c0.04-0.042,0.076-0.088,0.109-0.139
	c0.331-0.503,0.744-1.098,1.182-1.727c3.068-4.422,7.706-11.104,4.148-14.291c-1.256-1.126-2.747-1.458-4.199-0.938
	c-2.377,0.853-4.287,3.858-4.866,7.659c-0.09,0.589-0.268,0.978-0.477,1.042c-0.815,0.249-3.018-1.326-4.682-3.02
	c0.505-1.824,2.454-7.856,6.601-9.735c2.078-0.943,4.488-0.684,7.161,0.77c0.758,0.413,1.639,0.63,2.548,0.63h0.35l1.619,3.776
	c1.041,2.427,3.42,3.995,6.062,3.995h3.136c2.343,0,4.528-1.258,5.704-3.283l3.592-6.186c2.444-1.531,4.17-3.869,5.769-6.036
	c0.292-0.396,0.592-0.802,0.892-1.2c0.186,0.034,0.376,0.051,0.571,0.051c1.8,0,3.263-1.463,3.263-3.26
	c0-0.248-0.029-0.491-0.082-0.723c2.078-1.477,4.476-1.958,7.46-1.487c-0.181,3.373,0.503,6.35,2.034,8.857l0.129,0.209
	c1.074,1.757,2.088,3.417,2.499,4.729c0.46,1.461-0.004,1.911-0.474,2.219c-1.768,1.156-6.12-1.526-7.95-3.006
	c-0.247-0.2-0.572-0.275-0.882-0.207c-0.31,0.069-0.572,0.276-0.711,0.562c-0.57,1.174-1.89,4.384-1.853,8.832
	c0.035,4.287,1.304,8.254,3.771,11.792c0.026,0.037,0.054,0.072,0.083,0.104c1.249,1.682,2.301,3.515,3.127,5.455
	c0.54,1.27,0.131,2.734-0.95,3.404c-0.429,0.265-0.913,0.407-1.403,0.407c-1.064,0-2.018-0.635-2.428-1.617
	c-3.311-7.931-11.002-13.056-19.595-13.056c-8.493,0-16.15,5.041-19.505,12.842c-0.597,1.39-2.075,2.132-3.363,1.689
	c-0.699-0.24-1.249-0.74-1.551-1.409C11.774,43.751,11.764,43.01,12.046,42.332z M55.901,47.264
	c-6.034,1.999-13.119,3.107-20.452,3.107c-6.896,0-13.501-0.95-19.247-2.706c1.16-0.488,2.155-1.434,2.7-2.702
	c3.027-7.037,9.931-11.583,17.591-11.583c7.75,0,14.687,4.621,17.673,11.776C54.533,46.036,55.144,46.76,55.901,47.264z
	 M68.919,45.748c-7.96,5.76-20.159,9.063-33.469,9.063c-12.568,0-24.34-3.01-32.3-8.256c-0.543-0.358-0.694-1.091-0.336-1.634
	c0.227-0.344,0.604-0.53,0.988-0.53c0.223,0,0.448,0.063,0.648,0.195c7.584,4.998,18.883,7.866,30.999,7.866
	c12.637,0,24.631-3.221,32.086-8.616c0.254-0.184,0.564-0.259,0.874-0.21c0.312,0.05,0.587,0.218,0.773,0.474
	C69.564,44.628,69.446,45.367,68.919,45.748z"/>
</svg>
