<?xml version="1.0" encoding="utf-8"?>
<!-- Generator: Adobe Illustrator 17.0.0, SVG Export Plug-In . SVG Version: 6.00 Build 0)  -->
<!DOCTYPE svg PUBLIC "-//W3C//DTD SVG 1.1//EN" "http://www.w3.org/Graphics/SVG/1.1/DTD/svg11.dtd">
<svg version="1.1" id="Layer_1" xmlns:sketch="http://www.bohemiancoding.com/sketch/ns"
	 xmlns="http://www.w3.org/2000/svg" xmlns:xlink="http://www.w3.org/1999/xlink" x="0px" y="0px" width="85px" height="45px"
	 viewBox="0 0 85 45" enable-background="new 0 0 85 45" xml:space="preserve">
<title>Imported Layers</title>
<desc>Created with Sketch.</desc>
<g>
	<path fill="#CDDC39" d="M68.738,0.106l-3.11,19.547L58.134,0.078L27.15-0.001L0.045,44.062l17.662,0.041l3.511-6.413l12.165,0.028
		l0.932,6.429l15.074,0.039l1.28,0.015l2.941-18.538l7.312,18.554l15.321,0.041l7.868-44.115L68.738,0.106z M74.569,42.254
		l-12.284-0.033l-8.242-20.912h-1.768l-3.312,20.876l-12.917-0.032l-0.932-6.431l-15.08-0.034l-3.511,6.413L3.618,42.07
		L28.266,2.001l28.491,0.073l8.416,21.983h1.779L70.445,2.11l11.279,0.027L74.569,42.254z"/>
	<path fill="#CDDC39" d="M24.229,27.163l10.042,0.024l-1.694-15.053L24.229,27.163z M27.624,25.171l3.666-6.599l0.744,6.61
		L27.624,25.171z"/>
</g>
</svg>
